<?xml version="1.0" standalone="no"?>
<!DOCTYPE svg PUBLIC "-//W3C//DTD SVG 20010904//EN"
 "http://www.w3.org/TR/2001/REC-SVG-20010904/DTD/svg10.dtd">
<svg version="1.0" xmlns="http://www.w3.org/2000/svg"
 width="1280.000000pt" height="1121.000000pt" viewBox="0 0 1280.000000 1121.000000"
 preserveAspectRatio="xMidYMid meet">
<metadata>
Created by potrace 1.15, written by Peter Selinger 2001-2017
</metadata>
<g transform="translate(0.000000,1121.000000) scale(0.100000,-0.100000)"
fill="#D52B1E" stroke="none">
<path d="M10365 11204 c-675 -75 -1305 -475 -1808 -1148 -469 -629 -864 -1419
-1061 -2121 -35 -127 -66 -244 -66 -251 0 -3 24 8 53 24 267 153 860 282 1292
282 l160 0 19 53 c49 139 172 440 243 593 175 376 353 646 581 878 193 198
357 308 537 362 121 36 322 45 446 19 309 -62 550 -268 668 -570 163 -416 119
-990 -136 -1770 -135 -413 -375 -924 -573 -1220 -233 -347 -459 -564 -715
-686 -365 -174 -780 -112 -1051 156 -116 116 -166 208 -248 460 -8 22 -16 81
-20 130 -13 167 -23 188 -99 199 -164 25 -542 -154 -914 -432 -118 -88 -111
-71 -87 -244 88 -642 343 -1026 891 -1337 496 -282 1061 -380 1578 -276 517
104 1062 469 1483 994 330 411 574 848 827 1484 226 570 352 1045 412 1556 24
207 24 645 0 836 -69 538 -240 942 -551 1298 -310 354 -845 630 -1377 712
-103 15 -406 27 -484 19z"/>
<path d="M8525 7840 c-616 -62 -1207 -283 -1725 -645 -226 -159 -460 -344
-660 -524 -52 -47 -96 -86 -98 -87 -2 -1 7 -85 19 -187 l22 -186 57 52 c32 29
141 132 242 230 102 97 187 177 190 177 2 0 -30 -152 -72 -337 -43 -186 -76
-340 -74 -341 1 -2 110 62 242 142 132 80 246 148 254 151 12 5 8 -21 -17
-117 -62 -233 -124 -473 -122 -474 1 -1 78 34 170 76 167 77 170 79 310 202
332 292 661 514 943 638 224 98 404 106 567 24 66 -34 192 -155 222 -215 28
-54 31 -105 20 -269 -6 -96 -5 -121 8 -145 24 -47 83 -111 148 -161 212 -163
500 -206 791 -117 l87 26 20 61 c57 174 97 353 113 503 21 202 -22 508 -98
691 -140 340 -433 627 -773 757 -166 64 -240 76 -481 80 -118 2 -255 -1 -305
-5z"/>
<path d="M5413 5908 c-233 -286 -350 -456 -522 -758 -148 -260 -193 -353 -260
-532 -163 -437 -238 -919 -211 -1358 26 -402 104 -618 287 -791 80 -75 186
-144 205 -133 46 28 299 248 373 325 157 162 225 282 254 443 18 96 14 141
-14 182 -88 130 -71 324 51 567 227 453 496 863 812 1235 24 28 42 52 39 52
-4 0 -51 -18 -107 -39 -59 -23 -100 -34 -100 -27 0 6 9 110 20 231 11 121 20
232 20 247 0 25 -8 22 -262 -117 -145 -78 -265 -141 -266 -140 -2 2 25 95 61
207 118 366 126 392 123 395 -1 2 -113 -132 -247 -296 -134 -165 -248 -300
-252 -300 -5 -1 -6 2 -4 7 3 4 44 148 91 320 l86 313 -32 45 c-17 24 -34 44
-38 44 -3 0 -51 -55 -107 -122z"/>
<path d="M4270 5489 c-603 -51 -1179 -208 -1855 -506 -168 -74 -545 -263 -700
-351 -115 -65 -404 -256 -510 -337 -662 -504 -1064 -1092 -1176 -1720 -26
-144 -32 -477 -11 -610 46 -290 112 -497 239 -748 353 -697 909 -1078 1743
-1193 154 -22 589 -25 755 -6 663 77 1392 307 2080 657 812 414 1324 831 1687
1375 195 293 321 613 374 950 27 172 25 542 -4 700 -67 365 -208 645 -476 944
l-80 89 -39 -44 c-336 -381 -459 -548 -536 -733 -62 -150 -65 -167 -67 -456
-1 -261 -2 -267 -32 -380 -39 -149 -62 -208 -117 -305 -132 -230 -356 -440
-738 -689 -386 -252 -955 -525 -1374 -660 -610 -196 -1122 -239 -1483 -124
-228 73 -385 188 -504 370 -106 162 -148 307 -148 503 1 154 31 279 101 420
139 277 463 592 868 841 458 282 1282 617 1728 704 84 16 308 40 375 40 11 0
20 15 29 53 95 386 236 725 444 1065 38 63 67 115 65 116 -1 2 -46 11 -98 21
-111 21 -378 28 -540 14z"/>
<path d="M7958 4657 c-35 -40 -142 -166 -237 -282 -201 -243 -417 -463 -581
-590 -63 -49 -116 -89 -116 -89 -1 -1 7 -41 18 -91 29 -134 36 -444 13 -602
-31 -217 -102 -449 -194 -630 -23 -46 -38 -83 -33 -83 4 0 62 20 128 43 511
186 922 429 1354 801 149 128 465 446 681 684 204 226 219 245 219 284 0 34
-28 54 -90 63 -127 19 -429 132 -625 234 -165 85 -281 162 -389 256 l-84 74
-64 -72z"/>
</g>
</svg>
